#N canvas 502 495 1416 978 10;
#X obj 261 167 oscparse;
#X obj 261 208 print parse-output;
#X obj 261 132 netreceive -u -b 5000;
#X obj 225 405 noteout;
#X obj 141 228 list trim;
#X obj 410 328 readsf~;
#X obj 418 370 dac~;
#X msg 348 287 1;
#X msg 406 281 open ocean.mp3;
#X obj 139 284 unpack sym 0 0;
#X obj 219 332 makenote 50 800;
#X connect 0 0 1 0;
#X connect 0 0 4 0;
#X connect 2 0 0 0;
#X connect 4 0 9 0;
#X connect 5 0 6 0;
#X connect 5 0 6 1;
#X connect 7 0 5 0;
#X connect 8 0 5 0;
#X connect 9 1 10 0;
#X connect 9 2 10 1;
#X connect 10 0 3 0;
#X connect 10 1 3 1;
